<?xml version="1.0" encoding="UTF-8"?>
<svg version="1.1" xmlns="http://www.w3.org/2000/svg" width="500" height="500">
<path d="M0 0 C0.90045044 -0.00705963 1.80090088 -0.01411926 2.7286377 -0.02139282 C40.56271231 -0.2507174 40.56271231 -0.2507174 57.20703125 3.203125 C58.69759033 3.50911621 58.69759033 3.50911621 60.21826172 3.82128906 C99.50805429 12.13038172 135.63990924 28.25160337 167.20703125 53.203125 C167.820625 53.6868457 168.43421875 54.17056641 169.06640625 54.66894531 C184.57729219 67.06193357 199.3777789 81.46523943 211.02441406 97.57177734 C212.22833642 99.23251417 213.46120275 100.86847266 214.69921875 102.50390625 C238.74606165 134.70348904 254.2192407 173.58207973 260.20703125 213.203125 C260.38363281 214.33137695 260.56023437 215.45962891 260.7421875 216.62207031 C262.36923437 228.06660175 262.60600419 239.40507128 262.58203125 250.953125 C262.58121552 252.43563248 262.58121552 252.43563248 262.5803833 253.9480896 C262.53905923 270.33440439 261.57635186 286.11808073 258.20703125 302.203125 C257.88557129 303.75217529 257.88557129 303.75217529 257.55761719 305.33251953 C248.8721045 345.78273473 230.07028927 383.76637323 203.20703125 415.203125 C202.57023437 415.95207031 201.9334375 416.70101563 201.27734375 417.47265625 C189.95489312 430.4031592 177.76996251 442.85005395 163.86181641 452.99267578 C162.21458994 454.19759593 160.59131984 455.43011682 158.96875 456.66796875 C130.04543816 478.39369535 87.19527825 500.203125 50.20703125 500.203125 C50.20703125 442.123125 50.20703125 384.043125 50.20703125 324.203125 C78.91703125 323.708125 78.91703125 323.708125 108.20703125 323.203125 C111.83703125 299.773125 115.46703125 276.343125 119.20703125 252.203125 C96.43703125 252.203125 73.66703125 252.203125 50.20703125 252.203125 C50.11421875 238.6525 50.11421875 238.6525 50.01953125 224.828125 C49.99221924 221.99557129 49.96490723 219.16301758 49.93676758 216.24462891 C49.92799706 213.97298609 49.92035446 211.70133853 49.9140625 209.4296875 C49.89104065 207.69271606 49.89104065 207.69271606 49.86755371 205.9206543 C49.86382009 194.2244581 52.49047436 182.9341261 61.0234375 174.3828125 C70.0728175 167.10674535 80.14431177 165.03648403 91.4453125 165.10546875 C92.22660522 165.10647583 93.00789795 165.10748291 93.81286621 165.10852051 C96.71510295 165.11372947 99.61731866 165.12769067 102.51953125 165.140625 C112.26484375 165.1715625 112.26484375 165.1715625 122.20703125 165.203125 C122.20703125 145.073125 122.20703125 124.943125 122.20703125 104.203125 C63.47337389 96.28783742 63.47337389 96.28783742 9.20703125 116.203125 C5.66676754 119.01572518 2.40579092 122.00978695 -0.79296875 125.203125 C-1.84097656 126.23373047 -1.84097656 126.23373047 -2.91015625 127.28515625 C-26.30484912 151.81772329 -26.23831497 186.46555451 -26.46252441 218.17150879 C-26.4981597 222.70252354 -26.5549023 227.23332183 -26.60791779 231.76416016 C-26.68536771 238.5771167 -26.73677248 245.38981144 -26.79296875 252.203125 C-47.58296875 252.203125 -68.37296875 252.203125 -89.79296875 252.203125 C-89.79296875 275.963125 -89.79296875 299.723125 -89.79296875 324.203125 C-69.00296875 324.203125 -48.21296875 324.203125 -26.79296875 324.203125 C-26.79296875 382.283125 -26.79296875 440.363125 -26.79296875 500.203125 C-40.32313953 499.07561077 -40.32313953 499.07561077 -45.1328125 497.85546875 C-46.20450684 497.58436279 -47.27620117 497.31325684 -48.38037109 497.03393555 C-49.48590332 496.73914307 -50.59143555 496.44435059 -51.73046875 496.140625 C-52.90561035 495.82971924 -54.08075195 495.51881348 -55.29150391 495.19848633 C-104.94872655 481.68102367 -150.98200184 451.80103731 -182.79296875 411.203125 C-183.5715625 410.24148438 -184.35015625 409.27984375 -185.15234375 408.2890625 C-210.01249218 377.01594585 -226.02003356 339.95318741 -234.04296875 300.953125 C-234.19419189 300.22254883 -234.34541504 299.49197266 -234.5012207 298.73925781 C-237.47596081 283.33309392 -238.19913894 268.04482185 -238.16796875 252.390625 C-238.16775726 251.40611359 -238.16754578 250.42160217 -238.16732788 249.40725708 C-238.13237535 233.04466761 -237.13468311 217.2684304 -233.79296875 201.203125 C-233.60573242 200.2946582 -233.41849609 199.38619141 -233.22558594 198.45019531 C-221.12679629 141.8429049 -188.30944069 87.2116156 -141.79296875 52.203125 C-141.17292969 51.72842773 -140.55289063 51.25373047 -139.9140625 50.76464844 C-100.35610574 20.60827438 -50.20123244 0.26368982 0 0 Z " fill="#FFFFFF" transform="translate(237.79296875,-0.203125)"/>
</svg>
