<svg width="561" height="460" viewBox="0 0 561 460" fill="none" xmlns="http://www.w3.org/2000/svg">
<g clip-path="url(#clip0_2_1647)">
<path d="M284.117 419.969L301.728 414.78L296.589 432.441L301.728 450.053L284.117 444.914L266.456 450.053L271.644 432.441L266.456 414.78L284.117 419.969Z" fill="black" stroke="white" stroke-miterlimit="10"/>
</g>
<g clip-path="url(#clip1_2_1647)">
<path d="M97.9594 332.894L129.453 350.054L97.9594 367.351L80.7307 398.776L63.5021 367.351L32.0082 350.054L63.5021 332.894L80.7307 301.331L97.9594 332.894Z" fill="black" stroke="white" stroke-miterlimit="10"/>
</g>
<path d="M318.723 188.489C387.201 226.261 445.968 266.282 485.623 300.443C505.454 317.527 520.485 333.127 529.564 346.234C534.104 352.789 537.138 358.696 538.551 363.836C539.963 368.973 539.743 373.297 537.842 376.743C535.941 380.189 532.401 382.681 527.303 384.227C522.203 385.774 515.587 386.359 507.621 386.015C491.692 385.328 470.478 380.936 445.45 373.275C395.401 357.957 330.201 329.599 261.723 291.827C193.245 254.055 134.478 214.034 94.8224 179.872C74.992 162.789 59.9614 147.189 50.8826 134.082C46.3427 127.527 43.3074 121.619 41.8947 116.48C40.4828 111.343 40.7025 107.019 42.603 103.573C44.5036 100.128 48.0442 97.6345 53.1424 96.0885C58.2431 94.5418 64.8595 93.9575 72.8253 94.3011C88.7547 94.9884 109.968 99.3799 134.996 107.04C185.045 122.359 250.245 150.717 318.723 188.489Z" stroke="black"/>
<path d="M298.481 225.184C366.959 262.956 425.726 302.976 465.381 337.138C485.212 354.221 500.243 369.822 509.322 382.929C513.862 389.483 516.896 395.391 518.309 400.531C519.721 405.667 519.501 409.992 517.6 413.438C515.699 416.883 512.159 419.376 507.061 420.922C501.961 422.468 495.345 423.053 487.379 422.71C471.45 422.022 450.236 417.631 425.208 409.97C375.159 394.652 309.959 366.293 241.481 328.521C173.003 290.749 114.236 250.729 74.5804 216.567C54.7501 199.484 39.7194 183.884 30.6406 170.777C26.1007 164.222 23.0654 158.314 21.6527 153.174C20.2408 148.038 20.4605 143.714 22.361 140.268C24.2616 136.822 27.8022 134.329 32.9004 132.783C38.0011 131.236 44.6175 130.652 52.5834 130.996C68.5128 131.683 89.7261 136.075 114.754 143.735C164.803 159.053 230.003 187.412 298.481 225.184Z" stroke="black"/>
<path d="M278.241 261.879C346.719 299.651 405.486 339.672 445.141 373.833C464.972 390.917 480.003 406.517 489.082 419.624C493.622 426.179 496.656 432.086 498.069 437.226C499.481 442.363 499.261 446.687 497.36 450.133C495.459 453.579 491.919 456.071 486.821 457.617C481.72 459.164 475.105 459.748 467.139 459.405C451.21 458.718 429.996 454.326 404.968 446.665C354.919 431.347 289.719 402.989 221.241 365.217C152.763 327.445 93.9955 287.424 54.3403 253.262C34.51 236.179 19.4794 220.579 10.4006 207.472C5.86064 200.917 2.82536 195.009 1.41271 189.87C0.000794873 184.733 0.22048 180.409 2.12094 176.963C4.0216 173.517 7.56214 171.024 12.6604 169.478C17.761 167.932 24.3775 167.347 32.3433 167.691C48.2727 168.378 69.4861 172.77 94.514 180.43C144.563 195.749 209.763 224.107 278.241 261.879Z" stroke="black"/>
<circle cx="104.516" cy="91.7475" r="15.5088" fill="#B9FF66"/>
<circle cx="394.181" cy="422.436" r="10.0057" fill="#B9FF66"/>
<circle cx="54.4873" cy="51.7247" r="23.5134" fill="black"/>
<path d="M279.087 370.996C272.78 373.152 265.571 368.88 263.064 361.472L224.043 247.145L246.844 239.346L285.904 353.829C288.411 361.159 285.356 368.84 279.087 370.996Z" fill="black"/>
<path d="M275.679 372.407C273.837 372.407 271.957 371.976 270.155 371.075C266.511 369.272 263.612 365.901 262.201 361.747L223.181 247.42C223.024 246.989 223.259 246.479 223.729 246.322L246.53 238.523C246.766 238.444 247.001 238.444 247.197 238.562C247.392 238.68 247.549 238.836 247.627 239.072L286.687 353.555C289.312 361.315 286.021 369.507 279.322 371.819C278.186 372.211 276.932 372.407 275.679 372.407ZM225.14 247.694L263.886 361.198C265.14 364.921 267.726 367.978 270.938 369.546C273.524 370.8 276.305 371.035 278.813 370.173C284.611 368.174 287.432 360.963 285.081 354.104L246.295 240.443L225.14 247.694Z" fill="black"/>
<path d="M242.808 140.657L169.037 193.294L140.32 223.12L129.037 243.069L128.997 243.226C126.764 246.675 128.057 254.631 132.249 262.744C136.363 270.74 142.161 276.305 146.235 276.619L146.118 276.697L167.783 279.049L208.332 272.582L294.405 241.776L401.399 260.118L402.143 260.157C375.267 255.141 338.989 219.2 312.622 168.367C286.295 117.572 277.911 67.3657 289.468 42.5955H289.429L243.396 139.403L242.808 140.657Z" fill="#B9FF66"/>
<path d="M419.924 257.945C446.367 244.207 441.254 181.928 408.504 118.84C375.754 55.7519 327.769 15.7457 301.327 29.4834C274.884 43.2212 279.997 105.501 312.747 168.589C345.497 231.677 393.482 271.683 419.924 257.945Z" fill="white"/>
<path d="M408.295 261.529C396.776 261.529 382.908 255.102 367.981 242.599C347.648 225.589 327.706 199.369 311.839 168.72C287.824 122.315 277.912 74.7342 286.609 47.4949C289.508 38.4021 294.366 32.0527 300.987 28.6429C314.151 21.9017 332.682 27.6239 353.211 44.7906C373.544 61.8004 393.485 88.0207 409.352 118.67C433.407 165.075 443.319 212.655 434.583 239.895C431.684 248.988 426.826 255.337 420.205 258.747C416.639 260.628 412.643 261.529 408.295 261.529ZM312.976 27.6239C308.94 27.6239 305.179 28.447 301.81 30.2107C295.581 33.3853 291.036 39.4211 288.294 48.0828C279.714 74.9302 289.587 122.001 313.407 168.014C345.846 230.606 393.407 270.661 419.46 257.297C425.689 254.122 430.234 248.086 432.976 239.424C441.556 212.577 431.684 165.506 407.864 119.493C379.617 65.0143 339.969 27.6239 312.976 27.6239Z" fill="black"/>
<path d="M408.294 261.529C396.776 261.529 382.907 255.102 367.981 242.599C347.648 225.589 327.706 199.369 311.839 168.72C287.823 122.315 277.912 74.7341 286.609 47.4948C289.508 38.402 294.366 32.0527 300.987 28.6428C309.802 24.0964 321.32 25.233 334.288 31.8959C346.707 38.2844 360.145 49.6113 373.23 64.6223C373.544 64.975 373.505 65.5237 373.152 65.8373C372.799 66.1508 372.251 66.1116 371.938 65.7589C345.375 35.2665 318.499 21.6272 301.81 30.2106C295.581 33.3852 291.036 39.421 288.294 48.0827C279.714 74.9301 289.586 122.001 313.406 168.014C341.614 222.454 381.301 259.883 408.255 259.883C412.29 259.883 416.051 259.06 419.421 257.296C425.65 254.122 430.195 248.086 432.937 239.424C441.517 212.577 431.644 165.506 407.824 119.493C400.733 105.775 392.741 92.8806 384.161 81.1618C383.887 80.7699 383.965 80.2212 384.357 79.9469C384.749 79.6725 385.297 79.7509 385.571 80.1428C394.23 91.94 402.222 104.913 409.391 118.709C433.407 165.075 443.319 212.655 434.582 239.895C431.683 248.987 426.825 255.337 420.204 258.747C416.639 260.628 412.643 261.529 408.294 261.529Z" fill="black"/>
<path d="M359.928 177.635C366.053 174.452 364.875 160.037 357.296 145.437C349.717 130.836 338.607 121.581 332.481 124.763C326.355 127.946 327.534 142.361 335.113 156.962C342.692 171.562 353.802 180.817 359.928 177.635Z" fill="#B9FF66"/>
<path d="M357.247 179.145C350.508 179.145 341.106 170.444 334.328 157.314C328.686 146.419 326.375 135.209 328.451 128.743C329.196 126.469 330.41 124.862 332.095 124C338.755 120.59 350.156 129.879 358.069 145.125C363.711 156.021 366.022 167.23 363.946 173.697C363.202 175.97 361.987 177.577 360.303 178.44C359.362 178.91 358.344 179.145 357.247 179.145ZM335.151 124.98C334.328 124.98 333.544 125.137 332.878 125.49C331.585 126.156 330.645 127.41 330.058 129.252C328.138 135.288 330.371 146.027 335.817 156.531C343.025 170.444 353.877 179.811 359.48 176.911C360.773 176.245 361.713 174.991 362.301 173.149C364.22 167.074 361.948 156.374 356.542 145.87C350.195 133.681 341.106 124.98 335.151 124.98Z" fill="#B9FF66"/>
<path d="M402.34 246.91C392.232 246.91 380.087 241.266 367.002 230.331C349.215 215.438 331.742 192.471 317.873 165.662C296.835 125.058 288.177 83.3957 295.777 59.527C298.324 51.5316 302.594 45.9661 308.431 42.9483C321.83 36.0894 341.536 44.0065 362.535 64.6613C362.888 65.0141 362.888 65.5236 362.535 65.8763C362.183 66.2291 361.674 66.2291 361.321 65.8763C340.87 45.7702 321.869 37.9315 309.215 44.4768C303.808 47.2595 299.851 52.4722 297.422 60.0365C289.94 83.4741 298.559 124.627 319.401 164.879C344.044 212.498 378.716 245.186 402.301 245.186C405.827 245.186 409.078 244.441 412.056 242.952C417.462 240.169 421.419 234.956 423.848 227.392C431.331 203.954 422.712 162.801 401.87 122.55C395.562 110.4 388.51 98.9947 380.91 88.6868C380.636 88.2949 380.714 87.7462 381.106 87.4718C381.497 87.1975 382.046 87.2759 382.32 87.6678C389.999 98.0932 397.09 109.538 403.437 121.766C424.475 162.37 433.133 204.033 425.533 227.901C422.986 235.897 418.716 241.462 412.879 244.48C409.666 246.087 406.14 246.91 402.34 246.91Z" fill="black"/>
<path d="M167.823 279.872C167.784 279.872 167.745 279.872 167.745 279.872L146.08 277.52C145.962 277.52 145.844 277.481 145.727 277.403C141.261 276.697 135.619 271.053 131.505 263.136C127.118 254.788 125.825 246.636 128.215 242.795L128.254 242.677L139.537 222.689C139.576 222.61 139.615 222.571 139.654 222.532L168.372 192.706C168.411 192.667 168.45 192.628 168.489 192.588L242.064 140.069L288.607 42.2038C288.725 42.0079 288.882 41.8511 289.117 41.7727C289.352 41.6943 289.587 41.6943 289.783 41.8119C290.214 42.0079 290.41 42.5174 290.214 42.9485C278.421 68.2282 287.745 118.474 313.368 167.936C339.029 217.476 374.798 254.161 402.34 259.217C402.771 259.295 403.084 259.687 403.045 260.158C403.006 260.589 402.614 260.902 402.183 260.942L401.439 260.902C401.399 260.902 401.36 260.902 401.321 260.902L294.523 242.599L208.646 273.327C208.607 273.327 208.528 273.366 208.489 273.366L167.941 279.833C167.901 279.872 167.862 279.872 167.823 279.872ZM146.706 275.874L167.823 278.147L208.176 271.68L294.21 240.914C294.366 240.875 294.484 240.835 294.641 240.875L390.782 257.336C364.808 245.93 334.445 212.263 311.918 168.759C289.548 125.568 279.557 81.7107 285.042 54.001L243.592 141.01C243.514 141.128 243.436 141.245 243.318 141.324L169.625 193.96L141.026 223.63L129.742 243.618C129.742 243.657 129.703 243.696 129.703 243.696C127.666 246.871 129.037 254.71 132.994 262.352C136.873 269.838 142.475 275.482 146.315 275.757C146.471 275.757 146.589 275.796 146.706 275.874Z" fill="black"/>
<path d="M242.925 140.344L289.429 42.5564H289.468C277.91 67.3266 286.333 117.533 312.622 168.328C338.988 219.201 375.266 255.141 402.221 260.079L401.476 260.04L294.639 241.737L292.171 241.306C279.752 239.111 263.18 222.963 251.309 199.917C239.125 176.284 236.97 152.729 242.376 141.519L242.925 140.344Z" fill="white"/>
<path d="M402.221 260.941C402.182 260.941 402.221 260.941 402.221 260.941L401.437 260.902C401.398 260.902 401.359 260.902 401.32 260.902L294.483 242.599L292.015 242.168C278.89 239.855 262.24 223.042 250.526 200.349C237.244 174.559 236.578 151.592 241.593 141.167L242.181 139.991L288.684 42.2429C288.802 42.0469 288.959 41.8902 289.194 41.8118C289.429 41.7334 289.664 41.7334 289.86 41.851C290.291 42.0469 290.487 42.5565 290.291 42.9876C278.498 68.2672 287.823 118.513 313.445 167.975C339.106 217.515 374.875 254.2 402.417 259.256C402.848 259.334 403.161 259.726 403.122 260.197C403.004 260.589 402.652 260.941 402.221 260.941ZM284.963 54.0009L243.709 140.736L243.121 141.911C238.145 152.258 239.595 175.382 252.053 199.526C263.532 221.787 279.713 238.249 292.328 240.443L294.796 240.874L390.742 257.336C364.767 245.93 334.405 212.263 311.878 168.759C289.507 125.568 279.517 81.7105 284.963 54.0009Z" fill="black"/>
<path d="M166.647 279.754C166.608 279.754 166.569 279.754 166.569 279.754L146.04 277.559C145.922 277.559 145.805 277.52 145.687 277.442C141.221 276.736 135.579 271.092 131.466 263.175C127.117 254.788 125.824 246.636 128.214 242.795L128.253 242.677L139.536 222.689C139.771 222.258 140.281 222.14 140.712 222.375C141.143 222.61 141.26 223.12 141.025 223.551L129.742 243.618C129.742 243.657 129.703 243.696 129.703 243.696C127.666 246.871 129.037 254.71 132.994 262.352C136.872 269.838 142.475 275.482 146.314 275.756C146.432 275.756 146.588 275.796 146.667 275.874L166.726 278.03C167.196 278.069 167.548 278.5 167.47 278.97C167.431 279.401 167.078 279.754 166.647 279.754Z" fill="black"/>
<path d="M168.018 278.892C161.358 278.422 152.034 268.976 145.256 255.925C138.087 242.09 136.402 227.784 140.79 222.689L129.076 243.069L128.997 243.226C126.764 246.675 128.057 254.631 132.249 262.744C136.363 270.74 142.161 276.305 146.235 276.619L146.118 276.697L168.018 278.892Z" fill="white"/>
<path d="M168.018 279.754C167.979 279.754 167.979 279.754 167.94 279.754C167.783 279.754 167.587 279.715 167.431 279.715L146.04 277.559C145.922 277.559 145.805 277.52 145.687 277.442C141.221 276.736 135.579 271.093 131.466 263.176C127.117 254.788 125.824 246.636 128.214 242.795L128.253 242.677L138.557 224.727C138.949 223.708 139.458 222.806 140.085 222.062C140.359 221.709 140.868 221.67 141.221 221.905C141.574 222.179 141.691 222.65 141.456 223.042L140.006 225.511C137.695 231.743 139.967 243.971 145.922 255.415C152.387 267.918 161.202 277.05 167.509 277.873L167.979 277.912C168.449 277.951 168.802 278.383 168.763 278.853C168.802 279.402 168.449 279.754 168.018 279.754ZM146.667 275.874L161.632 277.403C155.873 273.719 149.527 266.115 144.473 256.317C139.576 246.871 137.147 237.073 137.538 230.018L129.742 243.618C129.742 243.657 129.703 243.696 129.703 243.696C127.666 246.871 129.037 254.71 132.994 262.352C136.872 269.838 142.475 275.482 146.314 275.757C146.432 275.757 146.588 275.796 146.667 275.874Z" fill="black"/>
<path d="M206.882 272.738L208.606 272.386C199.281 274.345 184.551 260.236 174.169 240.208C163.552 219.749 161.553 199.329 169.076 193.294L168.096 194.273L140.868 222.571C136.401 227.588 138.047 241.972 145.256 255.885C152.19 269.289 162.024 278.853 168.723 278.813L206.882 272.738Z" fill="black"/>
<path d="M168.685 279.715C161.554 279.715 151.642 270.113 144.473 256.317C137.186 242.207 135.345 227.47 140.203 222.022L166.922 194.274C167.392 193.646 167.94 193.098 168.528 192.627C168.88 192.353 169.39 192.392 169.703 192.706C170.017 193.059 170.017 193.568 169.703 193.882L168.175 195.489C162.73 202.778 165.433 221.435 174.953 239.816C185.217 259.648 199.556 273.248 208.332 271.602L208.45 271.563C208.92 271.484 209.351 271.759 209.468 272.229C209.547 272.699 209.272 273.13 208.802 273.248C208.763 273.248 208.724 273.248 208.685 273.287L207.079 273.601H207.039L168.88 279.676C168.802 279.676 168.724 279.715 168.685 279.715ZM164.649 199.134L141.495 223.198C137.186 228.058 139.145 242.246 146.04 255.533C152.779 268.545 162.299 277.951 168.685 277.99L202.377 272.621C193.288 269.407 182.083 257.296 173.425 240.639C165.198 224.766 162.024 208.618 164.649 199.134Z" fill="black"/>
<path d="M332.487 124.745C326.336 127.88 327.237 142.421 335.072 156.922C348.197 181.183 358.657 178.322 359.872 177.891C359.911 177.891 359.911 177.93 359.872 177.93L337.345 196.077C330.724 186.788 324.416 176.441 318.618 165.271C313.094 154.571 308.432 143.91 304.749 133.563L332.487 124.745Z" fill="black"/>
<path d="M337.344 196.939C337.305 196.939 337.266 196.939 337.227 196.939C336.992 196.9 336.796 196.782 336.639 196.586C329.861 187.062 323.554 176.637 317.873 165.702C312.427 155.198 307.726 144.498 303.965 133.916C303.887 133.681 303.887 133.446 304.004 133.25C304.122 133.054 304.278 132.897 304.514 132.819L332.251 124C332.682 123.883 333.152 124.079 333.309 124.51C333.466 124.941 333.309 125.411 332.917 125.607C331.585 126.273 330.606 127.606 330.018 129.566C328.098 135.719 330.449 146.615 335.895 156.609C348.706 180.282 358.579 177.577 359.636 177.185C360.028 177.029 360.498 177.225 360.694 177.577C360.89 177.93 360.812 178.44 360.498 178.714L337.893 196.743C337.736 196.86 337.54 196.939 337.344 196.939ZM305.885 134.112C309.607 144.341 314.151 154.688 319.401 164.879C324.886 175.461 330.998 185.534 337.54 194.822L357.09 179.067C352.624 178.871 344.2 175.539 334.328 157.314C328.608 146.771 326.257 135.641 328.333 128.938C328.608 128.076 328.921 127.332 329.313 126.626L305.885 134.112Z" fill="black"/>
<path d="M448.398 68.8318C466.308 59.4228 473.235 37.3324 463.87 19.4916C454.505 1.65078 432.394 -5.18452 414.484 4.22453C396.574 13.6336 389.646 35.724 399.011 53.5648C408.376 71.4056 430.487 78.2409 448.398 68.8318Z" fill="black"/>
<path d="M414.759 28.4467C416.483 26.0951 419.03 24.645 421.929 24.3314C424.123 24.0962 426.16 24.5666 428.08 25.7424C429.059 26.3303 429.921 27.0749 430.744 27.9764C431.332 26.9182 432.037 25.9775 432.859 25.1937C434.466 23.6259 436.385 22.7245 438.54 22.4893C441.439 22.1758 444.26 23.038 446.454 24.9585C448.609 26.8398 449.98 29.5833 450.333 32.6796C450.685 35.8542 449.823 38.9113 447.629 42.2819C445.671 45.2998 442.693 48.4353 439.245 52.1194C438.07 53.3736 436.738 54.7846 435.367 56.2739C435.014 56.6659 434.505 56.9402 433.956 56.9794C433.408 57.0578 432.899 56.901 432.429 56.5875C430.744 55.4117 429.138 54.3143 427.727 53.3736C423.574 50.5517 419.97 48.1217 417.384 45.6134C414.485 42.8306 412.996 40.0087 412.644 36.8341C412.33 33.7378 413.075 30.7591 414.759 28.4467Z" fill="white"/>
<path d="M550.004 70.8278C563.116 57.7108 563.116 36.4439 550.004 23.3268C536.893 10.2097 515.634 10.2097 502.522 23.3268C489.411 36.4438 489.411 57.7108 502.522 70.8278C515.634 83.9449 536.893 83.9449 550.004 70.8278Z" fill="#B9FF66"/>
<path d="M526.257 81.5147C507.295 81.5147 491.82 66.0725 491.82 47.0638C491.82 28.0942 507.256 12.6129 526.257 12.6129C545.258 12.6129 560.694 28.055 560.694 47.0638C560.694 66.0333 545.258 81.5147 526.257 81.5147ZM526.257 14.3374C508.236 14.3374 493.544 28.9957 493.544 47.0638C493.544 65.0927 508.196 79.7902 526.257 79.7902C544.279 79.7902 558.97 65.1319 558.97 47.0638C558.97 29.0349 544.318 14.3374 526.257 14.3374Z" fill="#B9FF66"/>
<path d="M535.346 50.3953C533.465 50.3953 531.82 51.2968 530.723 52.7077L519.401 48.2789C519.401 48.1221 519.44 48.0045 519.44 47.8477C519.44 47.5734 519.401 47.299 519.361 47.0247L530.958 41.6552C532.016 42.8702 533.583 43.6541 535.346 43.6933C538.558 43.6933 541.223 41.0673 541.223 37.8143C541.223 34.5612 538.598 31.8961 535.346 31.8961C532.133 31.8961 529.469 34.522 529.469 37.7751C529.469 38.0494 529.508 38.3238 529.548 38.5981L517.951 43.9676C516.893 42.7526 515.326 41.9687 513.563 41.9296C510.351 41.9296 507.687 44.5555 507.687 47.8085C507.687 51.0616 510.311 53.7267 513.563 53.7267C515.444 53.7267 517.089 52.8253 518.186 51.4143L529.508 55.8432C529.508 55.9999 529.469 56.1175 529.469 56.2743C529.469 59.5273 532.094 62.1925 535.346 62.1925C538.558 62.1925 541.223 59.5665 541.223 56.3135C541.183 53.0604 538.558 50.4345 535.346 50.3953Z" fill="black"/>
<path d="M535.791 177.289C551.166 166.613 555.029 145.561 544.419 130.268C533.808 114.976 512.743 111.233 497.368 121.909C481.992 132.586 478.129 153.638 488.74 168.93C499.35 184.223 520.415 187.965 535.791 177.289Z" fill="black"/>
<path d="M508.12 165.663L503.183 138.894C502.948 137.522 504.202 136.385 505.534 136.738L534.721 145.008C536.21 145.439 536.562 147.359 535.348 148.3L511.058 166.799C510 167.661 508.394 167.073 508.12 165.663Z" fill="white"/>
<path d="M516.248 286.94C535.235 277.693 543.18 254.893 533.994 236.015C524.807 217.137 501.968 209.33 482.981 218.577C463.994 227.824 456.049 250.624 465.236 269.502C474.422 288.38 497.261 296.187 516.248 286.94Z" fill="#B9FF66"/>
<path d="M499.421 291.708C495.347 291.708 491.194 291.081 487.159 289.709C477.286 286.417 469.294 279.519 464.671 270.191C460.048 260.902 459.342 250.359 462.673 240.482C469.568 220.141 491.742 209.049 512.154 215.83C522.027 219.122 530.019 226.02 534.642 235.348C539.265 244.637 539.97 255.18 536.64 265.057C531.077 281.361 515.758 291.708 499.421 291.708ZM499.813 215.595C484.181 215.595 469.529 225.471 464.24 241.07C461.066 250.516 461.732 260.589 466.159 269.446C470.586 278.343 478.226 284.967 487.668 288.102C507.178 294.569 528.373 283.987 534.955 264.547C538.128 255.102 537.462 245.029 533.035 236.171C528.608 227.274 520.969 220.651 511.527 217.515C507.648 216.183 503.691 215.595 499.813 215.595Z" fill="black"/>
<path d="M519.09 246.597C518.698 256.121 502.596 278.382 498.756 283.595C498.365 284.144 497.542 284.105 497.189 283.517C494.76 279.597 486.729 266.428 482.537 255.768C480.852 251.535 479.795 247.694 479.912 244.99C480.343 234.172 489.471 225.746 500.284 226.177C511.097 226.686 519.521 235.779 519.09 246.597Z" fill="black"/>
<path d="M505.837 252.165C509.341 248.66 509.341 242.977 505.837 239.472C502.333 235.967 496.653 235.967 493.149 239.472C489.646 242.977 489.646 248.66 493.149 252.165C496.653 255.67 502.333 255.67 505.837 252.165Z" fill="#B9FF66"/>
<defs>
<clipPath id="clip0_2_1647">
<rect width="36" height="36" fill="white" transform="translate(266.108 414.431) scale(1.00057)"/>
</clipPath>
<clipPath id="clip1_2_1647">
<rect width="70.3259" height="70.3259" fill="white" transform="translate(80.7307 300.366) scale(1.00057) rotate(45)"/>
</clipPath>
</defs>
</svg>
