<svg width="140" height="24" viewBox="0 0 140 24" fill="none" xmlns="http://www.w3.org/2000/svg">
<path d="M0 22.5733V0H9.12454C10.5249 0 11.7722 0.279479 12.8663 0.838437C13.9822 1.37589 14.8465 2.14984 15.4592 3.16026C16.0938 4.14918 16.411 5.34234 16.411 6.73973V7.15895C16.411 8.55635 16.0828 9.76025 15.4264 10.7707C14.7918 11.7811 13.9275 12.555 12.8334 13.0925C11.7394 13.63 10.5031 13.8987 9.12454 13.8987H3.54478V22.5733H0ZM3.54478 10.7384H8.7635C10.0107 10.7384 11.0063 10.416 11.7503 9.771C12.4943 9.12605 12.8663 8.24462 12.8663 7.1267V6.80423C12.8663 5.66482 12.4943 4.77263 11.7503 4.12768C11.0063 3.48273 10.0107 3.16026 8.7635 3.16026H3.54478V10.7384Z" fill="white"/>
<path d="M27.0082 23.0247C25.389 23.0247 23.9448 22.7023 22.6757 22.0573C21.4285 21.3909 20.4438 20.4449 19.7217 19.2195C18.9996 17.9941 18.6386 16.543 18.6386 14.8661V14.3824C18.6386 12.7055 18.9996 11.2651 19.7217 10.0612C20.4438 8.83582 21.4285 7.8899 22.6757 7.22345C23.9448 6.557 25.389 6.22377 27.0082 6.22377C28.6274 6.22377 30.0716 6.557 31.3407 7.22345C32.6098 7.8899 33.6055 8.83582 34.3275 10.0612C35.0496 11.2651 35.4107 12.7055 35.4107 14.3824V14.8661C35.4107 16.543 35.0496 17.9941 34.3275 19.2195C33.6055 20.4449 32.6098 21.3909 31.3407 22.0573C30.0716 22.7023 28.6274 23.0247 27.0082 23.0247ZM27.0082 20.058C28.4961 20.058 29.6996 19.5957 30.6186 18.6713C31.5595 17.7254 32.03 16.4247 32.03 14.7694V14.4791C32.03 12.8238 31.5705 11.5339 30.6515 10.6094C29.7324 9.66351 28.518 9.19055 27.0082 9.19055C25.5422 9.19055 24.3387 9.66351 23.3978 10.6094C22.4788 11.5339 22.0193 12.8238 22.0193 14.4791V14.7694C22.0193 16.4247 22.4788 17.7254 23.3978 18.6713C24.3387 19.5957 25.5422 20.058 27.0082 20.058Z" fill="white"/>
<path d="M46.2496 23.0247C44.1928 23.0247 42.486 22.5733 41.1294 21.6703C39.7728 20.7674 38.9413 19.4023 38.6349 17.5749L41.7858 16.8332C41.9609 17.7146 42.2563 18.4133 42.672 18.9293C43.0878 19.4453 43.602 19.8107 44.2147 20.0257C44.8492 20.2407 45.5276 20.3482 46.2496 20.3482C47.3218 20.3482 48.1424 20.144 48.7113 19.7355C49.3021 19.327 49.5975 18.8003 49.5975 18.1554C49.5975 17.5104 49.324 17.0374 48.7769 16.7365C48.2299 16.4355 47.4203 16.1883 46.3481 15.9948L45.2322 15.8013C44.1381 15.6078 43.1425 15.3283 42.2454 14.9629C41.3482 14.5974 40.6371 14.0922 40.1119 13.4472C39.5868 12.8023 39.3242 11.9746 39.3242 10.9642C39.3242 9.45928 39.8931 8.29836 41.0309 7.48143C42.1688 6.64299 43.6786 6.22377 45.5604 6.22377C47.3765 6.22377 48.8645 6.63224 50.0242 7.44918C51.2058 8.24462 51.9716 9.33029 52.3217 10.7062L49.1708 11.5769C48.9739 10.6094 48.5581 9.93224 47.9236 9.54527C47.289 9.1368 46.5013 8.93257 45.5604 8.93257C44.6414 8.93257 43.9193 9.10455 43.3941 9.44853C42.869 9.771 42.6064 10.2332 42.6064 10.8352C42.6064 11.4801 42.858 11.9531 43.3613 12.2541C43.8865 12.555 44.5867 12.7808 45.4619 12.9313L46.6107 13.1247C47.7704 13.3182 48.8316 13.587 49.7944 13.9309C50.7572 14.2749 51.5121 14.7694 52.0592 15.4143C52.6281 16.0593 52.9125 16.9192 52.9125 17.9941C52.9125 19.585 52.3108 20.8212 51.1073 21.7026C49.9038 22.584 48.2846 23.0247 46.2496 23.0247Z" fill="white"/>
<path d="M56.864 22.5733V6.67524H60.2447V22.5733H56.864ZM58.5708 4.51466C57.9143 4.51466 57.3563 4.31042 56.8968 3.90195C56.4592 3.47198 56.2404 2.92378 56.2404 2.25733C56.2404 1.59088 56.4592 1.05342 56.8968 0.644951C57.3563 0.214984 57.9143 0 58.5708 0C59.2491 0 59.8071 0.214984 60.2447 0.644951C60.6823 1.05342 60.9011 1.59088 60.9011 2.25733C60.9011 2.92378 60.6823 3.47198 60.2447 3.90195C59.8071 4.31042 59.2491 4.51466 58.5708 4.51466Z" fill="white"/>
<path d="M71.3339 22.5733C70.3493 22.5733 69.5615 22.283 68.9707 21.7026C68.4018 21.1221 68.1174 20.3482 68.1174 19.3808V9.48077H63.6536V6.67524H68.1174V1.41889H71.498V6.67524H76.3229V9.48077H71.498V18.8003C71.498 19.4453 71.8044 19.7677 72.4171 19.7677H75.7977V22.5733H71.3339Z" fill="white"/>
<path d="M80.2946 22.5733V6.67524H83.6753V22.5733H80.2946ZM82.0014 4.51466C81.3449 4.51466 80.7869 4.31042 80.3274 3.90195C79.8898 3.47198 79.671 2.92378 79.671 2.25733C79.671 1.59088 79.8898 1.05342 80.3274 0.644951C80.7869 0.214984 81.3449 0 82.0014 0C82.6797 0 83.2377 0.214984 83.6753 0.644951C84.1129 1.05342 84.3317 1.59088 84.3317 2.25733C84.3317 2.92378 84.1129 3.47198 83.6753 3.90195C83.2377 4.31042 82.6797 4.51466 82.0014 4.51466Z" fill="white"/>
<path d="M92.4342 22.5733L86.9857 6.67524H90.5633L94.863 20.1225H95.3881L99.6878 6.67524H103.265L97.817 22.5733H92.4342Z" fill="white"/>
<path d="M112.749 22.8635C111.524 22.8635 110.43 22.5948 109.467 22.0573C108.504 21.5199 107.749 20.7567 107.202 19.7677C106.655 18.7788 106.382 17.5964 106.382 16.2205V6.67524H109.762V15.9948C109.762 17.3707 110.113 18.3918 110.813 19.0583C111.513 19.7032 112.487 20.0257 113.734 20.0257C115.112 20.0257 116.217 19.5743 117.049 18.6713C117.902 17.7469 118.329 16.4247 118.329 14.7049V6.67524H121.71V22.5733H118.395V20.187H117.869C117.563 20.8319 117.016 21.4446 116.228 22.0251C115.441 22.584 114.281 22.8635 112.749 22.8635Z" fill="white"/>
<path d="M133.337 23.0247C131.28 23.0247 129.574 22.5733 128.217 21.6703C126.86 20.7674 126.029 19.4023 125.722 17.5749L128.873 16.8332C129.048 17.7146 129.344 18.4133 129.76 18.9293C130.175 19.4453 130.69 19.8107 131.302 20.0257C131.937 20.2407 132.615 20.3482 133.337 20.3482C134.409 20.3482 135.23 20.144 135.799 19.7355C136.39 19.327 136.685 18.8003 136.685 18.1554C136.685 17.5104 136.411 17.0374 135.864 16.7365C135.317 16.4355 134.508 16.1883 133.436 15.9948L132.32 15.8013C131.226 15.6078 130.23 15.3283 129.333 14.9629C128.436 14.5974 127.725 14.0922 127.199 13.4472C126.674 12.8023 126.412 11.9746 126.412 10.9642C126.412 9.45928 126.981 8.29836 128.118 7.48143C129.256 6.64299 130.766 6.22377 132.648 6.22377C134.464 6.22377 135.952 6.63224 137.112 7.44918C138.293 8.24462 139.059 9.33029 139.409 10.7062L136.258 11.5769C136.061 10.6094 135.646 9.93224 135.011 9.54527C134.377 9.1368 133.589 8.93257 132.648 8.93257C131.729 8.93257 131.007 9.10455 130.482 9.44853C129.956 9.771 129.694 10.2332 129.694 10.8352C129.694 11.4801 129.946 11.9531 130.449 12.2541C130.974 12.555 131.674 12.7808 132.549 12.9313L133.698 13.1247C134.858 13.3182 135.919 13.587 136.882 13.9309C137.845 14.2749 138.6 14.7694 139.147 15.4143C139.716 16.0593 140 16.9192 140 17.9941C140 19.585 139.398 20.8212 138.195 21.7026C136.991 22.584 135.372 23.0247 133.337 23.0247Z" fill="white"/>
</svg>
