<svg width="171" height="29" viewBox="0 0 171 29" fill="none" xmlns="http://www.w3.org/2000/svg">
<path d="M0 28.0629V0H11.145C12.8555 0 14.3789 0.347445 15.7152 1.04234C17.0783 1.7105 18.134 2.67265 18.8823 3.9288C19.6574 5.15822 20.0449 6.64154 20.0449 8.37877V8.89994C20.0449 10.6372 19.644 12.1338 18.8422 13.39C18.0671 14.6461 17.0114 15.6083 15.6751 16.2765C14.3388 16.9446 12.8287 17.2787 11.145 17.2787H4.3297V28.0629H0ZM4.3297 13.3499H10.704C12.2274 13.3499 13.4434 12.949 14.3522 12.1472C15.2609 11.3454 15.7152 10.2496 15.7152 8.85985V8.45895C15.7152 7.04244 15.2609 5.93329 14.3522 5.1315C13.4434 4.3297 12.2274 3.9288 10.704 3.9288H4.3297V13.3499Z" fill="black"/>
<path d="M32.9886 28.6241C31.0108 28.6241 29.2469 28.2232 27.6967 27.4214C26.1733 26.5929 24.9706 25.4169 24.0886 23.8935C23.2067 22.3701 22.7657 20.5661 22.7657 18.4814V17.8801C22.7657 15.7954 23.2067 14.0047 24.0886 12.508C24.9706 10.9846 26.1733 9.80864 27.6967 8.98012C29.2469 8.15159 31.0108 7.73733 32.9886 7.73733C34.9663 7.73733 36.7303 8.15159 38.2804 8.98012C39.8306 9.80864 41.0466 10.9846 41.9286 12.508C42.8106 14.0047 43.2516 15.7954 43.2516 17.8801V18.4814C43.2516 20.5661 42.8106 22.3701 41.9286 23.8935C41.0466 25.4169 39.8306 26.5929 38.2804 27.4214C36.7303 28.2232 34.9663 28.6241 32.9886 28.6241ZM32.9886 24.9359C34.806 24.9359 36.2759 24.3612 37.3985 23.212C38.5477 22.036 39.1223 20.4191 39.1223 18.3611V18.0003C39.1223 15.9424 38.5611 14.3388 37.4386 13.1895C36.316 12.0136 34.8327 11.4256 32.9886 11.4256C31.1979 11.4256 29.7279 12.0136 28.5787 13.1895C27.4562 14.3388 26.8949 15.9424 26.8949 18.0003V18.3611C26.8949 20.4191 27.4562 22.036 28.5787 23.212C29.7279 24.3612 31.1979 24.9359 32.9886 24.9359Z" fill="black"/>
<path d="M56.4906 28.6241C53.9783 28.6241 51.8936 28.0629 50.2366 26.9404C48.5796 25.8178 47.5639 24.1207 47.1898 21.8489L51.0384 20.9269C51.2522 22.0227 51.613 22.8913 52.1208 23.5327C52.6286 24.1742 53.2567 24.6285 54.005 24.8958C54.7801 25.163 55.6086 25.2967 56.4906 25.2967C57.8002 25.2967 58.8024 25.0428 59.4973 24.535C60.219 24.0272 60.5798 23.3724 60.5798 22.5706C60.5798 21.7688 60.2457 21.1808 59.5775 20.8066C58.9094 20.4324 57.9205 20.1251 56.6109 19.8845L55.2478 19.644C53.9115 19.4035 52.6954 19.056 51.5997 18.6017C50.5039 18.1473 49.6352 17.5192 48.9938 16.7174C48.3524 15.9157 48.0317 14.8867 48.0317 13.6305C48.0317 11.7597 48.7265 10.3164 50.1163 9.30084C51.5061 8.2585 53.3502 7.73733 55.6487 7.73733C57.867 7.73733 59.6844 8.24514 61.1009 9.26075C62.5442 10.2496 63.4796 11.5993 63.9072 13.3098L60.0586 14.3922C59.8181 13.1895 59.3103 12.3477 58.5352 11.8666C57.7601 11.3588 56.798 11.1049 55.6487 11.1049C54.5262 11.1049 53.6442 11.3187 53.0028 11.7463C52.3614 12.1472 52.0406 12.7218 52.0406 13.4702C52.0406 14.272 52.348 14.86 52.9627 15.2341C53.6041 15.6083 54.4594 15.8889 55.5284 16.076L56.9316 16.3166C58.3481 16.5571 59.6443 16.8912 60.8203 17.3188C61.9963 17.7464 62.9183 18.3611 63.5865 19.1629C64.2814 19.9647 64.6288 21.0338 64.6288 22.3701C64.6288 24.3479 63.8939 25.8847 62.4239 26.9804C60.9539 28.0762 58.9762 28.6241 56.4906 28.6241Z" fill="black"/>
<path d="M69.4553 28.0629V8.29859H73.5845V28.0629H69.4553ZM71.5399 5.61258C70.7381 5.61258 70.0566 5.35867 69.4954 4.85087C68.9608 4.31634 68.6936 3.63481 68.6936 2.80629C68.6936 1.97776 68.9608 1.3096 69.4954 0.801797C70.0566 0.267265 70.7381 0 71.5399 0C72.3685 0 73.05 0.267265 73.5845 0.801797C74.1191 1.3096 74.3863 1.97776 74.3863 2.80629C74.3863 3.63481 74.1191 4.31634 73.5845 4.85087C73.05 5.35867 72.3685 5.61258 71.5399 5.61258Z" fill="black"/>
<path d="M87.1292 28.0629C85.9266 28.0629 84.9644 27.7021 84.2428 26.9804C83.5479 26.2588 83.2004 25.2967 83.2004 24.094V11.7864H77.7482V8.29859H83.2004V1.76395H87.3297V8.29859H93.2229V11.7864H87.3297V23.3724C87.3297 24.1742 87.7039 24.5751 88.4522 24.5751H92.5815V28.0629H87.1292Z" fill="black"/>
<path d="M98.0741 28.0629V8.29859H102.203V28.0629H98.0741ZM100.159 5.61258C99.3569 5.61258 98.6754 5.35867 98.1142 4.85087C97.5796 4.31634 97.3124 3.63481 97.3124 2.80629C97.3124 1.97776 97.5796 1.3096 98.1142 0.801797C98.6754 0.267265 99.3569 0 100.159 0C100.987 0 101.669 0.267265 102.203 0.801797C102.738 1.3096 103.005 1.97776 103.005 2.80629C103.005 3.63481 102.738 4.31634 102.203 4.85087C101.669 5.35867 100.987 5.61258 100.159 5.61258Z" fill="black"/>
<path d="M112.902 28.0629L106.247 8.29859H110.617L115.868 25.016H116.51L121.762 8.29859H126.131L119.476 28.0629H112.902Z" fill="black"/>
<path d="M137.715 28.4237C136.218 28.4237 134.882 28.0896 133.706 27.4214C132.53 26.7533 131.608 25.8045 130.94 24.5751C130.272 23.3456 129.938 21.8757 129.938 20.1652V8.29859H134.067V19.8845C134.067 21.595 134.495 22.8646 135.35 23.6931C136.205 24.4949 137.394 24.8958 138.918 24.8958C140.602 24.8958 141.951 24.3345 142.967 23.212C144.009 22.0628 144.53 20.4191 144.53 18.281V8.29859H148.66V28.0629H144.611V25.0962H143.969C143.595 25.898 142.927 26.6597 141.965 27.3813C141.002 28.0762 139.586 28.4237 137.715 28.4237Z" fill="black"/>
<path d="M162.862 28.6241C160.349 28.6241 158.265 28.0629 156.608 26.9404C154.951 25.8178 153.935 24.1207 153.561 21.8489L157.409 20.9269C157.623 22.0227 157.984 22.8913 158.492 23.5327C159 24.1742 159.628 24.6285 160.376 24.8958C161.151 25.163 161.98 25.2967 162.862 25.2967C164.171 25.2967 165.174 25.0428 165.868 24.535C166.59 24.0272 166.951 23.3724 166.951 22.5706C166.951 21.7688 166.617 21.1808 165.949 20.8066C165.28 20.4324 164.292 20.1251 162.982 19.8845L161.619 19.644C160.283 19.4035 159.067 19.056 157.971 18.6017C156.875 18.1473 156.006 17.5192 155.365 16.7174C154.723 15.9157 154.403 14.8867 154.403 13.6305C154.403 11.7597 155.098 10.3164 156.487 9.30084C157.877 8.2585 159.721 7.73733 162.02 7.73733C164.238 7.73733 166.056 8.24514 167.472 9.26075C168.915 10.2496 169.851 11.5993 170.278 13.3098L166.43 14.3922C166.189 13.1895 165.681 12.3477 164.906 11.8666C164.131 11.3588 163.169 11.1049 162.02 11.1049C160.897 11.1049 160.015 11.3187 159.374 11.7463C158.732 12.1472 158.412 12.7218 158.412 13.4702C158.412 14.272 158.719 14.86 159.334 15.2341C159.975 15.6083 160.83 15.8889 161.9 16.076L163.303 16.3166C164.719 16.5571 166.015 16.8912 167.191 17.3188C168.367 17.7464 169.289 18.3611 169.958 19.1629C170.652 19.9647 171 21.0338 171 22.3701C171 24.3479 170.265 25.8847 168.795 26.9804C167.325 28.0762 165.347 28.6241 162.862 28.6241Z" fill="black"/>
</svg>
